<?xml version="1.0" encoding="utf-8"?>
<!-- Generator: Adobe Illustrator 26.5.0, SVG Export Plug-In . SVG Version: 6.00 Build 0)  -->
<svg version="1.1" id="publicdomainvectors.org" xmlns="http://www.w3.org/2000/svg" xmlns:xlink="http://www.w3.org/1999/xlink"
	 x="0px" y="0px" viewBox="0 0 660 660" style="enable-background:new 0 0 660 660;" xml:space="preserve">
<style type="text/css">
	.st0{fill-rule:evenodd;clip-rule:evenodd;fill:#E3F4FA;}
	.st1{fill-rule:evenodd;clip-rule:evenodd;fill:#333A3D;}
	.st2{fill-rule:evenodd;clip-rule:evenodd;fill:#63757D;}
	.st3{fill-rule:evenodd;clip-rule:evenodd;fill:#52646B;}
	.st4{fill-rule:evenodd;clip-rule:evenodd;fill:#B2C5CC;}
	.st5{fill-rule:evenodd;clip-rule:evenodd;fill:#97AFB8;}
	.st6{fill-rule:evenodd;clip-rule:evenodd;fill:#FFFFFF;}
	.st7{fill-rule:evenodd;clip-rule:evenodd;fill:#E1F1F7;}
	.st8{fill-rule:evenodd;clip-rule:evenodd;fill:#6699FF;}
</style>
<desc>flag of Yemen</desc>
<g>
	
		<ellipse transform="matrix(0.7071 -0.7071 0.7071 0.7071 -101.2169 318.8716)" class="st0" cx="334.3" cy="281.62" rx="227.85" ry="227.85"/>
	<path class="st1" d="M408.13,331.8l-5.97-1.88c-6.72-2.12-11.72-7.76-13.02-14.69l-4.11,0.88c-7.01,1.5-13.65,4.11-19.72,7.67
		V310.3H303.3v13.48c-6.06-3.56-12.71-6.17-19.72-7.67l-4.11-0.88c-1.3,6.92-6.3,12.57-13.02,14.69l-5.97,1.88l18.19,46.67h111.27
		L408.13,331.8z"/>
	<rect x="90.19" y="375.33" class="st2" width="488.24" height="190.43"/>
	<path class="st3" d="M255.69,375.33h54.15c4.4,9.23,7.75,21.57,9.43,37.58c3.06,29.1-0.41,58.53-7.85,77.19
		c5.28,5.82,9.53,14.21,11.58,24c4.28,20.49-2.71,39.28-15.62,41.98c-12.91,2.7-26.84-11.72-31.13-32.21
		c-1.87-8.93-1.59-17.54,0.38-24.64c-10.84-14.69-19.5-43.05-22.79-74.39C251.61,403.46,252.42,387.06,255.69,375.33L255.69,375.33z
		 M391.69,375.33h54.15c3.27,11.73,4.08,28.13,1.84,49.5c-3.29,31.34-11.95,59.7-22.79,74.39c1.98,7.09,2.25,15.71,0.38,24.64
		c-4.28,20.49-18.22,34.91-31.13,32.21c-12.91-2.7-19.9-21.49-15.62-41.98c2.05-9.79,6.29-18.18,11.58-24
		c-7.43-18.66-10.9-48.09-7.84-77.19C383.94,396.9,387.29,384.55,391.69,375.33z"/>
	<path class="st1" d="M275.42,460.9c12.91-2.7,26.84,11.72,31.13,32.21c4.28,20.49-2.71,39.28-15.62,41.98
		c-12.91,2.7-26.84-11.72-31.13-32.21C255.52,482.4,262.51,463.6,275.42,460.9L275.42,460.9z M393.19,460.9
		c-12.91-2.7-26.84,11.72-31.13,32.21c-4.28,20.49,2.71,39.28,15.62,41.98c12.91,2.7,26.84-11.72,31.12-32.21
		C413.09,482.4,406.1,463.6,393.19,460.9z"/>
	<path class="st1" d="M403.08,224.5l3.54,6.62c8.66,16.22,17.91,32.13,27.71,47.69l-35.59,2.11l-0.53-0.4L403.08,224.5z"/>
	<path class="st1" d="M408.13,331.8l-5.97-1.88c-6.72-2.12-11.72-7.76-13.02-14.69l-4.11,0.88c-17.09,3.66-32.04,13.91-41.62,28.53
		l2.31,9.71h44.21L408.13,331.8z"/>
	<path class="st1" d="M265.52,224.5l-3.54,6.62c-8.66,16.22-17.9,32.13-27.71,47.69l35.59,2.11l0.53-0.4L265.52,224.5z"/>
	<path class="st4" d="M334.3,188.11c40.77,0,73.82,15.82,73.82,66.12c0,50.3-33.05,91.08-73.82,91.08
		c-40.77,0-73.82-40.78-73.82-91.08C260.48,203.93,293.53,188.11,334.3,188.11z"/>
	<path class="st5" d="M267.03,291.8c-4.21-11.45-6.55-24.17-6.55-37.56c0-3.44,0.16-6.71,0.46-9.83
		c0.63,23.08,18.69,41.9,41.72,43.48L267.03,291.8z"/>
	<path class="st4" d="M408.13,331.8c-18.25-2.2-37.41,13.26-42.33,60.13c-4.92,46.86,7.07,94.6,25.32,96.79
		c18.25,2.2,35.17-38,40.1-84.87C436.14,356.99,426.38,334,408.13,331.8z"/>
	<path class="st4" d="M231.91,281.26c9.4-11.6,30.49-10.6,47.1,2.22c16.61,12.82,22.46,32.62,13.06,44.22
		c-9.4,11.6-30.49,10.6-47.1-2.22C228.35,312.66,222.51,292.86,231.91,281.26z"/>
	<path class="st4" d="M260.48,331.8c18.25-2.2,37.41,13.26,42.33,60.13c4.92,46.86-7.07,94.6-25.32,96.79
		c-18.25,2.2-35.17-38-40.1-84.87C232.47,356.99,242.23,334,260.48,331.8z"/>
	<path class="st5" d="M401.58,291.8c4.21-11.45,6.55-24.17,6.55-37.56c0-3.44-0.16-6.71-0.46-9.83
		c-0.63,23.08-18.69,41.9-41.72,43.48L401.58,291.8z"/>
	<path class="st4" d="M436.7,281.26c-9.4-11.6-30.49-10.6-47.1,2.22c-16.61,12.82-22.46,32.62-13.06,44.22
		c9.4,11.6,30.49,10.6,47.1-2.22C440.26,312.66,446.1,292.86,436.7,281.26z"/>
	<path class="st5" d="M379.71,293.51c-8.63,11.67-10.36,25.33-3.17,34.2c9.4,11.6,30.49,10.6,47.1-2.22
		c7.59-5.86,12.93-13.17,15.59-20.49c-2.66,3.6-5.97,7-9.89,10.02c-16.61,12.82-37.7,13.82-47.1,2.22
		C377.15,310.93,376.54,302.21,379.71,293.51z"/>
	<path class="st5" d="M288.89,293.51c8.63,11.67,10.36,25.33,3.17,34.2c-9.4,11.6-30.49,10.6-47.1-2.22
		c-7.59-5.86-12.93-13.17-15.6-20.49c2.66,3.6,5.97,7,9.89,10.02c16.61,12.82,37.7,13.82,47.1,2.22
		C291.46,310.93,292.07,302.21,288.89,293.51z"/>
	<path class="st6" d="M281.03,283.44c35.52,0,71.04,0,106.56,0c2.78,0,4.72,2.27,4.33,5.05l-7.68,53.49c-0.4,2.78-3,5.05-5.78,5.05
		c-29.43,0-58.86,0-88.29,0c-2.78,0-5.38-2.27-5.78-5.05l-7.68-53.49C276.3,285.71,278.25,283.44,281.03,283.44z"/>
	<path class="st7" d="M334.3,325.32c8.99,0,16.33-4.53,16.33-10.09c0-5.56-7.34-10.09-16.33-10.09c-9,0-16.33,4.53-16.33,10.09
		C317.97,320.79,325.31,325.32,334.3,325.32z"/>
	<path class="st1" d="M334.3,210.34c13.45,0,24.41-4.69,24.41-10.43c0-5.75-10.97-10.43-24.41-10.43
		c-13.45,0-24.41,4.69-24.41,10.43C309.89,205.66,320.86,210.34,334.3,210.34z"/>
	<path class="st1" d="M311.63,172.57l5.11,7.1c3.16,4.39,2.36,10.48-1.84,13.9l19.4,6.33l19.4-6.33c-4.19-3.42-5-9.51-1.84-13.9
		l5.11-7.1l-22.68,1.06L311.63,172.57z"/>
	<path class="st1" d="M283.75,122.55h101.1c9.15,0,16.64,7.49,16.64,16.64l0,0c0,9.15-7.49,16.64-16.64,16.64h-101.1
		c-9.15,0-16.64-7.49-16.64-16.64l0,0C267.12,130.04,274.6,122.55,283.75,122.55z"/>
	<ellipse class="st4" cx="334.3" cy="139.19" rx="57.65" ry="45.65"/>
	<path class="st1" d="M310.34,129.71h47.94c9.15,0,16.64,7.49,16.64,16.64l0,0c0,9.15-7.49,16.64-16.64,16.64h-47.94
		c-9.15,0-16.64-7.49-16.64-16.64l0,0C293.7,137.2,301.19,129.71,310.34,129.71z"/>
	<path class="st8" d="M359.85,137.45c0,5.12-4.15,9.27-9.27,9.27c-5.12,0-9.27-4.15-9.27-9.27H359.85z"/>
	<path class="st8" d="M327.3,137.45c0,5.12-4.15,9.27-9.27,9.27c-5.12,0-9.27-4.15-9.27-9.27H327.3z"/>
	<path class="st8" d="M341.47,153.47c0.58-0.86,1.75-1.08,2.61-0.49c0.86,0.59,1.08,1.75,0.49,2.61c-0.83,1.21-2.17,2.22-3.82,2.9
		c-1.5,0.62-3.27,0.98-5.15,0.98c-1.88,0-3.66-0.36-5.15-0.98c-1.65-0.68-2.99-1.69-3.82-2.9c-0.58-0.86-0.36-2.02,0.49-2.61
		c0.86-0.58,2.02-0.36,2.61,0.49c0.42,0.61,1.17,1.15,2.14,1.55c1.05,0.43,2.33,0.68,3.73,0.68c1.4,0,2.68-0.25,3.73-0.68
		C340.31,154.62,341.06,154.08,341.47,153.47z"/>
	<path class="st5" d="M367.45,380.1c-0.66,3.7-1.21,7.63-1.65,11.82c-4.92,46.86,7.07,94.6,25.32,96.79
		c15.23,1.83,29.53-25.85,36.71-62.29c-8.37,21.46-19.76,35.38-31.67,34.06C378.61,458.55,366.38,421.11,367.45,380.1L367.45,380.1z
		 M301.16,380.1c0.66,3.7,1.21,7.63,1.65,11.82c4.92,46.86-7.07,94.6-25.32,96.79c-15.23,1.83-29.53-25.85-36.71-62.29
		c8.37,21.46,19.76,35.38,31.67,34.06C290,458.55,302.23,421.11,301.16,380.1z"/>
</g>
</svg>
