<?xml version="1.0" encoding="utf-8"?>
<!-- Generator: Adobe Illustrator 26.5.0, SVG Export Plug-In . SVG Version: 6.00 Build 0)  -->
<svg version="1.1" id="publicdomainvectors.org" xmlns="http://www.w3.org/2000/svg" xmlns:xlink="http://www.w3.org/1999/xlink"
	 x="0px" y="0px" viewBox="0 0 660 660" style="enable-background:new 0 0 660 660;" xml:space="preserve">
<style type="text/css">
	.st0{fill-rule:evenodd;clip-rule:evenodd;fill:#E6E6E6;}
	.st1{fill-rule:evenodd;clip-rule:evenodd;fill:#808080;}
	.st2{fill-rule:evenodd;clip-rule:evenodd;fill:#FFFFFF;}
	.st3{fill-rule:evenodd;clip-rule:evenodd;fill:#6699FF;}
	.st4{fill-rule:evenodd;clip-rule:evenodd;fill:#B3B3B3;}
	.st5{fill-rule:evenodd;clip-rule:evenodd;fill:#999999;}
	.st6{fill-rule:evenodd;clip-rule:evenodd;fill:#666666;}
	.st7{fill-rule:evenodd;clip-rule:evenodd;fill:#FF6666;}
	.st8{fill-rule:evenodd;clip-rule:evenodd;fill:#333333;}
	.st9{fill-rule:evenodd;clip-rule:evenodd;fill:#3C72DE;}
</style>
<desc>flag of Yemen</desc>
<g>
	
		<ellipse transform="matrix(0.7071 -0.7071 0.7071 0.7071 -121.9791 329.9008)" class="st0" cx="337.24" cy="312.19" rx="264.18" ry="264.18"/>
	<g>
		<path class="st1" d="M203.09,347.07c22.34,0,44.71,0,67.03,0c22.31,0,44.66,0,67,0c22.31,0,44.66,0,66.97,0s44.68,0,67.05,0
			c4.89,0,9.88,1.85,10.98,4.12c3.08,6.3,6.29,12.88,9.63,19.72c3.49,7.15,7.15,14.62,10.97,22.43c4.02,8.22,8.23,16.84,12.66,25.9
			c4.66,9.54,9.57,19.59,14.77,30.22c1.99,4.06-1.96,7.4-8.6,7.4c-30.74,0-61.51,0-92.24,0c-30.73,0-61.47,0-92.2,0
			c-30.77,0-61.55,0-92.28,0c-30.74,0-61.47,0-92.17,0c-6.6,0-10.29-3.3-8.32-7.33c5.18-10.59,10.1-20.66,14.77-30.23
			c4.44-9.08,8.67-17.73,12.7-25.99c3.83-7.84,7.5-15.34,11-22.5c3.35-6.84,6.55-13.41,9.62-19.67
			C193.52,348.9,198.29,347.07,203.09,347.07z"/>
		<path class="st2" d="M206.97,164.57H467.5c4.71,0,8.56,3.85,8.56,8.56v152.19c0,4.71-3.85,8.56-8.56,8.56H206.97
			c-4.71,0-8.56-3.85-8.56-8.56V173.14C198.41,168.43,202.26,164.57,206.97,164.57z"/>
		<rect x="210.09" y="176.26" class="st3" width="254.28" height="145.94"/>
		<path class="st4" d="M203.09,332.18c22.34,0,44.71,0,67.03,0c22.31,0,44.66,0,67,0c22.31,0,44.66,0,66.97,0s44.68,0,67.05,0
			c4.89,0,9.88,1.86,10.98,4.12c3.08,6.3,6.29,12.88,9.63,19.72c3.49,7.15,7.15,14.62,10.97,22.43c4.02,8.22,8.23,16.84,12.66,25.9
			c4.66,9.54,9.57,19.59,14.77,30.22c1.99,4.06-1.96,7.4-8.6,7.4c-30.74,0-61.51,0-92.24,0c-30.73,0-61.47,0-92.2,0
			c-30.77,0-61.55,0-92.28,0c-30.74,0-61.47,0-92.17,0c-6.6,0-10.29-3.31-8.32-7.34c5.18-10.59,10.1-20.66,14.77-30.22
			c4.44-9.08,8.67-17.73,12.7-25.99c3.83-7.84,7.5-15.34,11-22.5c3.35-6.84,6.55-13.41,9.62-19.67
			C193.52,334.01,198.29,332.18,203.09,332.18z"/>
		<path class="st5" d="M521.32,416.5l8.83,18.06c1.99,4.06-1.96,7.4-8.6,7.4c-30.74,0-61.51,0-92.24,0h-12.55
			c-5.01-7.35-12.67-12.88-21.06-15.08c-6.12-1.61-11.8-5.49-15.74-10.77c-1.94-2.6-2.59-5.75-1.71-8.35
			c1.21-3.62,4.52-5.87,8.63-5.88l15.98-0.03l-26.41-39.52C427.3,356.31,481.67,377.75,521.32,416.5L521.32,416.5z M277.54,441.97
			h-32.72c-30.74,0-61.47,0-92.17,0c-0.25,0-0.5-0.01-0.74-0.02c28.26-54.1,87.35-86.37,149.49-79.29l-18.17,39.3h15.87
			c4.08,0,7.83,2.24,9.77,5.83c1.4,2.59,1.4,5.71,0,8.3c-2.83,5.25-7.68,9.13-13.43,10.73C287.51,429.04,281,434.6,277.54,441.97z"
			/>
		<path class="st1" d="M201.62,336.48c22.58,0,45.17,0.01,67.75,0.01c22.58,0,45.17,0.01,67.78,0.01c22.53,0,45.09,0.01,67.67,0.01
			c22.58,0,45.2,0.01,67.82,0.01c1.87,4.11,3.8,8.32,5.77,12.66c2.03,4.44,4.15,9.02,6.3,13.72c2.21,4.84,4.48,9.85,6.84,14.99
			c2.45,5.32,4.96,10.79,7.55,16.46c-27.02,0-54.04,0.01-81.04,0.01c-26.99,0-53.98,0.01-80.94,0.01c-26.99,0-54.02,0.01-81.01,0.01
			c-26.99,0-53.99,0-80.98,0.01c2.6-5.69,5.07-11.2,7.49-16.52c2.35-5.17,4.67-10.17,6.91-15.04c2.17-4.7,4.26-9.3,6.29-13.73
			C197.8,344.77,199.75,340.56,201.62,336.48z"/>
		<path class="st6" d="M494.38,394.35c-25.45,0-50.9,0.01-76.32,0.01h-20.22l-21.41-32.03
			C416.55,357.58,458.84,369.92,494.38,394.35L494.38,394.35z M286.74,394.38c-10.21,0-20.42,0-30.63,0c-21.66,0-43.31,0-64.97,0.01
			c30.26-24.14,69.6-36.36,110.26-31.72L286.74,394.38z"/>
		<path class="st5" d="M226.97,348.87c-0.77,2.07-1.52,4.17-2.28,6.31c6.01,0,12.02,0,18.03,0c0.64-2.13,1.27-4.24,1.89-6.3
			C238.72,348.87,232.83,348.87,226.97,348.87L226.97,348.87z M230.44,339.12c-0.69,1.96-1.39,3.92-2.11,5.92c5.79,0,11.6,0,17.42,0
			c0.6-1.99,1.19-3.96,1.77-5.92C241.82,339.12,236.15,339.12,230.44,339.12L230.44,339.12z M205.85,339.12
			c-0.85,1.95-1.72,3.92-2.59,5.91c5.82,0,11.63,0.01,17.48,0.01c0.76-2,1.52-3.96,2.25-5.91
			C217.25,339.12,211.55,339.12,205.85,339.12L205.85,339.12z M254.98,339.14c-0.53,1.94-1.1,3.92-1.65,5.91
			c5.85,0,11.69,0.01,17.48,0.01c0.44-2,0.86-3.97,1.29-5.92C266.39,339.14,260.69,339.14,254.98,339.14L254.98,339.14z
			 M279.5,339.15c-0.37,1.93-0.75,3.91-1.14,5.91c5.82,0,11.63,0,17.48,0c0.27-1.99,0.54-3.96,0.8-5.91
			C290.9,339.15,285.2,339.15,279.5,339.15L279.5,339.15z M304.01,339.15c-0.21,1.94-0.43,3.92-0.65,5.91
			c5.85,0,11.63,0.01,17.45,0.01c0.11-2,0.21-3.96,0.32-5.92C315.45,339.15,309.74,339.15,304.01,339.15L304.01,339.15z
			 M328.55,339.15c-0.06,1.95-0.11,3.92-0.17,5.92c5.85,0,11.69,0.01,17.45,0.01c-0.06-2-0.11-3.96-0.17-5.92
			C339.99,339.16,334.28,339.15,328.55,339.15L328.55,339.15z M353.09,339.16c0.1,1.95,0.21,3.92,0.31,5.92
			c5.82,0,11.6,0.01,17.48,0.01c-0.22-2.01-0.44-3.97-0.68-5.93C364.47,339.16,358.77,339.16,353.09,339.16L353.09,339.16z
			 M377.61,339.16c0.29,1.95,0.56,3.93,0.83,5.93c5.82,0,11.63,0,17.45,0c-0.38-2-0.76-3.96-1.14-5.92
			C389.04,339.16,383.34,339.16,377.61,339.16L377.61,339.16z M402.18,339.17c0.42,1.95,0.85,3.93,1.31,5.92
			c5.85,0,11.61,0.01,17.42,0.01c-0.55-2-1.12-3.97-1.65-5.92C413.59,339.17,407.91,339.17,402.18,339.17L402.18,339.17z
			 M426.72,339.18c0.58,1.94,1.17,3.92,1.77,5.92c5.82,0,11.63,0,17.45,0.01c-0.71-2-1.42-3.98-2.11-5.93
			C438.1,339.18,432.43,339.18,426.72,339.18L426.72,339.18z M451.27,339.18c0.75,1.95,1.5,3.93,2.26,5.93
			c5.82,0,11.64,0.01,17.49,0.01c-0.88-2.01-1.74-3.99-2.6-5.93C462.68,339.19,456.94,339.18,451.27,339.18L451.27,339.18z
			 M223.22,359.27c-0.79,2.22-1.59,4.47-2.41,6.75c6.22,0,12.4,0,18.62,0c0.68-2.28,1.39-4.52,2.05-6.74
			C235.4,359.28,229.31,359.27,223.22,359.27L223.22,359.27z M219.24,370.43c-0.85,2.37-1.74,4.78-2.61,7.22c6.44,0,12.88,0,19.31,0
			c0.74-2.45,1.46-4.85,2.17-7.22C231.81,370.43,225.51,370.43,219.24,370.43L219.24,370.43z M214.98,382.36
			c-0.91,2.56-1.84,5.16-2.78,7.78c6.68,0,13.35,0,20.03,0c0.79-2.64,1.57-5.23,2.33-7.78C228.03,382.36,221.5,382.36,214.98,382.36
			L214.98,382.36z M186.86,382.36c-1.12,2.55-2.26,5.16-3.42,7.8c6.68,0,13.32,0,20.06,0c1.01-2.64,2-5.25,2.97-7.8
			C199.88,382.36,193.38,382.36,186.86,382.36L186.86,382.36z M243.06,382.36c-0.7,2.56-1.41,5.15-2.14,7.78c6.68,0,13.39,0,20.03,0
			c0.57-2.64,1.14-5.23,1.7-7.77C256.15,382.37,249.62,382.36,243.06,382.36L243.06,382.36z M271.15,382.37
			c-0.49,2.55-0.99,5.14-1.5,7.77c6.68,0,13.35,0,20.06,0c0.36-2.64,0.71-5.23,1.06-7.77C284.21,382.37,277.68,382.37,271.15,382.37
			L271.15,382.37z M299.2,382.37c-0.28,2.55-0.57,5.14-0.87,7.77c6.71,0,13.39,0,20.06,0c0.14-2.64,0.28-5.23,0.42-7.77
			C312.29,382.37,305.76,382.37,299.2,382.37L299.2,382.37z M327.32,382.37c-0.07,2.55-0.15,5.14-0.23,7.77c6.71,0,13.38,0,20.03,0
			c-0.07-2.64-0.14-5.24-0.22-7.78C340.41,382.36,333.88,382.37,327.32,382.37L327.32,382.37z M355.41,382.36
			c0.13,2.55,0.27,5.15,0.41,7.77c6.68,0,13.35,0,20.1,0c-0.32-2.62-0.61-5.22-0.89-7.77C368.46,382.36,361.94,382.36,355.41,382.36
			L355.41,382.36z M383.49,382.36c0.34,2.55,0.7,5.15,1.05,7.77c6.71,0,13.39,0,20.06,0c-0.5-2.63-1-5.22-1.49-7.77
			C396.58,382.36,390.05,382.36,383.49,382.36L383.49,382.36z M411.65,382.36c0.55,2.55,1.11,5.14,1.68,7.77c6.68,0,13.35,0,19.99,0
			c-0.72-2.63-1.43-5.22-2.13-7.77C424.7,382.36,418.17,382.36,411.65,382.36L411.65,382.36z M439.7,382.36
			c0.76,2.55,1.54,5.14,2.32,7.77c6.67,0,13.35,0,20.06,0c-0.94-2.63-1.86-5.22-2.8-7.77C452.75,382.36,446.23,382.36,439.7,382.36
			L439.7,382.36z M467.78,382.36c0.97,2.55,1.96,5.14,2.96,7.77c6.68,0,13.35,0,20.06,0c-1.15-2.63-2.29-5.22-3.4-7.77
			C480.84,382.36,474.31,382.36,467.78,382.36L467.78,382.36z M192.07,370.43c-1.04,2.37-2.1,4.78-3.18,7.22c6.44,0,12.88,0,19.35,0
			c0.94-2.45,1.86-4.85,2.76-7.22C204.67,370.43,198.37,370.43,192.07,370.43L192.07,370.43z M246.32,370.43
			c-0.65,2.37-1.32,4.78-1.99,7.22c6.5,0,12.94,0,19.38,0c0.53-2.45,1.06-4.85,1.54-7.22C258.98,370.43,252.68,370.43,246.32,370.43
			L246.32,370.43z M273.42,370.43c-0.46,2.37-0.92,4.78-1.4,7.22c6.44,0,12.88,0.01,19.35,0.01c0.33-2.46,0.66-4.85,0.98-7.23
			C286.02,370.43,279.73,370.43,273.42,370.43L273.42,370.43z M300.5,370.44c-0.26,2.37-0.53,4.76-0.81,7.23c6.47,0,12.91,0,19.35,0
			c0.13-2.45,0.26-4.85,0.39-7.21C313.13,370.45,306.83,370.45,300.5,370.44L300.5,370.44z M327.64,370.45
			c-0.07,2.36-0.14,4.76-0.18,7.21c6.47,0,12.91,0,19.31,0c-0.07-2.45-0.17-4.84-0.23-7.21C340.3,370.45,334,370.45,327.64,370.45
			L327.64,370.45z M354.75,370.45c0.12,2.37,0.25,4.78,0.38,7.21c6.44,0,12.88,0,19.35,0c-0.27-2.44-0.53-4.84-0.79-7.21
			C367.35,370.45,361.05,370.45,354.75,370.45L354.75,370.45z M381.86,370.45c0.32,2.37,0.64,4.78,0.97,7.21c6.47,0,12.91,0,19.35,0
			c-0.47-2.44-0.93-4.84-1.38-7.21C394.49,370.45,388.19,370.45,381.86,370.45L381.86,370.45z M409,370.46
			c0.55,2.36,1.07,4.77,1.63,7.2c6.44,0,12.88,0,19.28,0c-0.7-2.44-1.36-4.83-2.01-7.2C421.63,370.46,415.36,370.46,409,370.46
			L409,370.46z M436.11,370.46c0.71,2.37,1.43,4.77,2.16,7.2c6.44,0.01,12.88,0.01,19.31,0.01c-0.87-2.45-1.72-4.84-2.57-7.21
			C448.71,370.46,442.41,370.46,436.11,370.46L436.11,370.46z M463.22,370.47c0.9,2.36,1.82,4.75,2.74,7.2c6.47,0,12.91,0,19.35,0
			c-1.07-2.45-2.12-4.84-3.16-7.2C475.85,370.47,469.52,370.47,463.22,370.47L463.22,370.47z M196.97,359.27
			c-0.97,2.21-1.96,4.47-2.96,6.74c6.22,0,12.43,0,18.68,0c0.9-2.27,1.76-4.52,2.61-6.74C209.14,359.27,203.05,359.27,196.97,359.27
			L196.97,359.27z M249.42,359.28c-0.61,2.22-1.23,4.47-1.89,6.74c6.28,0,12.5,0,18.68,0.01c0.5-2.29,0.99-4.54,1.47-6.74
			C261.62,359.29,255.54,359.28,249.42,359.28L249.42,359.28z M275.61,359.29c-0.43,2.21-0.86,4.46-1.3,6.74c6.18,0,12.4,0,18.68,0
			c0.31-2.27,0.62-4.53,0.92-6.74C287.75,359.29,281.7,359.29,275.61,359.29L275.61,359.29z M301.77,359.29
			c-0.25,2.22-0.5,4.47-0.75,6.74c6.22,0,12.43,0,18.65,0c0.12-2.27,0.24-4.51,0.37-6.73C313.95,359.29,307.86,359.29,301.77,359.29
			L301.77,359.29z M327.97,359.3c-0.06,2.22-0.13,4.46-0.2,6.73c6.28,0,12.5,0.01,18.65,0.01c-0.06-2.27-0.12-4.52-0.19-6.73
			C340.21,359.32,334.12,359.3,327.97,359.3L327.97,359.3z M354.16,359.32c0.12,2.21,0.23,4.46,0.35,6.73c6.22,0,12.43,0,18.68,0
			c-0.25-2.27-0.5-4.52-0.74-6.73C366.34,359.32,360.25,359.32,354.16,359.32L354.16,359.32z M380.36,359.32
			c0.3,2.22,0.6,4.46,0.91,6.74c6.25,0,12.46,0,18.68,0c-0.44-2.27-0.87-4.51-1.29-6.74C392.53,359.32,386.48,359.32,380.36,359.32
			L380.36,359.32z M406.58,359.32c0.48,2.23,0.97,4.47,1.46,6.74c6.28,0,12.46,0,18.65,0c-0.65-2.26-1.27-4.51-1.87-6.72
			C418.79,359.33,412.7,359.33,406.58,359.32L406.58,359.32z M432.75,359.34c0.66,2.21,1.36,4.46,2.04,6.72
			c6.22,0,12.43,0,18.65,0.01c-0.81-2.27-1.61-4.53-2.4-6.73C444.93,359.34,438.84,359.34,432.75,359.34L432.75,359.34z
			 M458.95,359.34c0.84,2.21,1.73,4.46,2.59,6.73c6.22,0,12.46,0,18.68,0c-0.99-2.27-1.97-4.5-2.95-6.73
			C471.16,359.34,465.07,359.34,458.95,359.34L458.95,359.34z M201.57,348.87c-0.9,2.06-1.83,4.16-2.77,6.3c6.01,0,11.99,0,18.06,0
			c0.82-2.14,1.62-4.23,2.41-6.3C213.32,348.87,207.46,348.87,201.57,348.87L201.57,348.87z M252.28,348.88
			c-0.57,2.06-1.14,4.17-1.73,6.31c6.04,0,12.08,0,18.03,0c0.47-2.13,0.92-4.24,1.37-6.31
			C264.12,348.88,258.23,348.88,252.28,348.88L252.28,348.88z M277.62,348.88c-0.4,2.07-0.81,4.17-1.22,6.3c6.01,0,11.99,0,18.06,0
			c0.29-2.13,0.58-4.23,0.85-6.29C289.4,348.88,283.51,348.88,277.62,348.88L277.62,348.88z M302.93,348.9
			c-0.23,2.08-0.46,4.16-0.7,6.3c6.01,0,12.02,0,18.03,0c0.12-2.13,0.23-4.23,0.34-6.3C314.71,348.9,308.85,348.9,302.93,348.9
			L302.93,348.9z M328.27,348.9c-0.06,2.08-0.12,4.17-0.18,6.31c6.07,0,12.08,0,18.03,0c-0.06-2.13-0.12-4.23-0.18-6.3
			C340.11,348.91,334.22,348.9,328.27,348.9L328.27,348.9z M353.61,348.91c0.11,2.07,0.22,4.17,0.33,6.31c6.01,0,12.02,0,18.06,0
			c-0.24-2.13-0.47-4.24-0.7-6.31C365.36,348.91,359.5,348.91,353.61,348.91L353.61,348.91z M378.95,348.92
			c0.28,2.06,0.56,4.17,0.85,6.3c6.04,0,12.02,0,18.03,0c-0.41-2.13-0.81-4.23-1.21-6.29C390.74,348.93,384.84,348.92,378.95,348.92
			L378.95,348.92z M404.33,348.93c0.45,2.08,0.91,4.17,1.37,6.3c6.04,0,12.05,0,18,0c-0.58-2.13-1.16-4.23-1.73-6.3
			C416.14,348.93,410.25,348.93,404.33,348.93L404.33,348.93z M429.64,348.93c0.62,2.08,1.25,4.17,1.89,6.31c6.01,0,12.02,0,18.03,0
			c-0.76-2.13-1.51-4.23-2.25-6.3C441.42,348.94,435.53,348.94,429.64,348.93L429.64,348.93z M454.99,348.94
			c0.79,2.07,1.59,4.17,2.4,6.31c6.04,0,12.05,0,18.06,0c-0.94-2.13-1.85-4.23-2.77-6.31C466.8,348.94,460.91,348.94,454.99,348.94z
			"/>
		<path class="st1" d="M290.13,387.03l-1.44,3.11h-19.05c0.51-2.64,1.01-5.23,1.5-7.77c6.53,0,13.06,0,19.62,0L290.13,387.03
			L290.13,387.03z M196.7,390.16c2.97-2.15,6.01-4.19,9.13-6.11l-2.33,6.11H196.7L196.7,390.16z M217.27,377.65
			c5.45-2.75,11.08-5.16,16.85-7.22h3.99c-0.71,2.37-1.43,4.78-2.17,7.22H217.27L217.27,377.65z M248.74,366.02
			c5.96-1.47,12.03-2.57,18.19-3.3l-0.72,3.31C260.42,366.03,254.61,366.02,248.74,366.02L248.74,366.02z M275.09,361.99
			c6.09-0.38,12.25-0.38,18.45,0l-0.55,4.05c-6.28,0-12.5,0-18.68,0L275.09,361.99L275.09,361.99z M381.86,370.45l4.82,7.21h15.5
			c-0.47-2.44-0.93-4.84-1.38-7.21H381.86L381.86,370.45z M389.82,382.36l5.2,7.77h9.59c-0.5-2.63-1-5.22-1.49-7.77H389.82
			L389.82,382.36z M487.99,390.13c-4.38-2.77-8.86-5.37-13.41-7.77h-6.8c0.97,2.55,1.96,5.14,2.96,7.77H487.99L487.99,390.13z
			 M456.22,373.85c-3.04-1.21-6.09-2.35-9.17-3.39h-10.95c0.71,2.37,1.43,4.77,2.16,7.2c6.44,0.01,12.88,0.01,19.31,0.01
			C457.12,376.39,456.67,375.11,456.22,373.85L456.22,373.85z M426.33,364.78c-6.37-1.33-12.77-2.29-19.18-2.85l0.89,4.12
			c6.28,0,12.46,0,18.65,0C426.57,365.63,426.45,365.21,426.33,364.78L426.33,364.78z M399.06,361.42
			c-6.14-0.22-12.27-0.06-18.35,0.47l0.56,4.16c6.25,0,12.46,0,18.68,0L399.06,361.42L399.06,361.42z M214.98,382.36
			c-0.91,2.56-1.84,5.16-2.78,7.78c6.68,0,13.35,0,20.03,0c0.79-2.64,1.57-5.23,2.33-7.78C228.03,382.36,221.5,382.36,214.98,382.36
			L214.98,382.36z M243.06,382.36c-0.7,2.56-1.41,5.15-2.14,7.78c6.68,0,13.39,0,20.03,0c0.57-2.64,1.14-5.23,1.7-7.77
			C256.15,382.37,249.62,382.36,243.06,382.36L243.06,382.36z M411.65,382.36c0.55,2.55,1.11,5.14,1.68,7.77c6.68,0,13.35,0,19.99,0
			c-0.72-2.63-1.43-5.22-2.13-7.77C424.7,382.36,418.17,382.36,411.65,382.36L411.65,382.36z M439.7,382.36
			c0.76,2.55,1.54,5.14,2.32,7.77c6.67,0,13.35,0,20.06,0c-0.94-2.63-1.86-5.22-2.8-7.77C452.75,382.36,446.23,382.36,439.7,382.36
			L439.7,382.36z M246.32,370.43c-0.65,2.37-1.32,4.78-1.99,7.22c6.5,0,12.94,0,19.38,0c0.53-2.45,1.06-4.85,1.54-7.22
			C258.98,370.43,252.68,370.43,246.32,370.43L246.32,370.43z M273.42,370.43c-0.46,2.37-0.92,4.78-1.4,7.22
			c6.44,0,12.88,0.01,19.35,0.01c0.33-2.46,0.66-4.85,0.98-7.23C286.02,370.43,279.73,370.43,273.42,370.43L273.42,370.43z
			 M409,370.46c0.55,2.36,1.07,4.77,1.63,7.2c6.44,0,12.88,0,19.28,0c-0.7-2.44-1.36-4.83-2.01-7.2
			C421.63,370.46,415.36,370.46,409,370.46z"/>
		<path class="st5" d="M281.24,396.32c18.64,0,37.31,0,55.95,0c18.64,0,37.31,0,55.99,0c1.51,9.62,3.1,19.76,4.78,30.5
			c-20.27,0-40.54,0-60.78,0c-20.23,0-40.51,0-60.74,0.01C278.12,416.09,279.72,405.94,281.24,396.32z"/>
		<path class="st1" d="M281.24,396.32h4.6l-2.61,5.65h15.87c4.08,0,7.83,2.24,9.77,5.83c1.4,2.59,1.4,5.71,0,8.3
			c-2.83,5.24-7.67,9.11-13.41,10.72c-6.34,0-12.69,0-19.03,0.01C278.12,416.09,279.72,405.94,281.24,396.32L281.24,396.32z
			 M394.04,401.86l3.91,24.95h-2.53c-6.02-1.65-11.59-5.5-15.47-10.7c-1.94-2.6-2.59-5.75-1.71-8.35c1.21-3.62,4.52-5.87,8.63-5.88
			L394.04,401.86z"/>
		<path class="st7" d="M202.69,441.58c15.32,9.21,45.91,5.4,61.18-6.96c9.18-7.42,19.57-18.6,29.47-23.79
			c20.65-10.84,5.68-28.45-14.06-20.37c-8.71,3.57-12.85,15.96-16.76,0.58l15.35-21.54c3.42-4.79,8.08-4.17,13.03-3.37
			c19.54,3.14,21.65-13.06,13.49-20.21c-3.81-3.34-8.43-4.79-13.14-4.11c-3.93-5.87-17.33-10.15-27.18-5.17
			c-11.1-6.61-17.96-4.94-24.68-0.8c-8.63-2.7-13.8-6.64-23.22-0.07c-6.5,4.54-7.38,5.99-12.84,13.59
			c-17.42,24.25-45.52,37.81-67.86,52.46c-40.69,26.69,7.99,88.91,34.91,51.59C177.4,443.7,178.98,444.94,202.69,441.58z"/>
		<path class="st2" d="M130.08,396.79l29.14-13.2c17.06-7.73,37.2-1.18,46.45,15.11c9.25,16.29,2.97,34.97-10.84,47.63l-20.91,19.16
			L130.08,396.79z"/>
		<path class="st8" d="M91.64,409.69l43.29-19.62c21.38-9.69,46.62-1.48,58.2,18.93c11.59,20.41,3.72,43.82-13.58,59.68l-30.98,28.4
			C124.21,472.22,104.71,442.58,91.64,409.69z"/>
		<path class="st7" d="M471.78,441.58c-15.32,9.21-45.91,5.4-61.18-6.96c-9.18-7.42-19.57-18.6-29.47-23.79
			c-20.65-10.84-5.68-28.45,14.05-20.37c8.71,3.57,12.85,15.96,16.76,0.58l-15.35-21.54c-3.41-4.79-8.08-4.17-13.03-3.37
			c-19.54,3.14-21.65-13.06-13.49-20.21c3.81-3.34,8.43-4.79,13.14-4.11c3.93-5.87,17.32-10.15,27.18-5.17
			c11.1-6.61,17.96-4.94,24.68-0.8c8.64-2.7,13.8-6.64,23.22-0.07c6.5,4.54,7.38,5.99,12.84,13.59
			c17.42,24.25,45.52,37.81,67.86,52.46c40.69,26.69-7.99,88.91-34.91,51.59C497.07,443.7,495.49,444.94,471.78,441.58z"/>
		<path class="st2" d="M544.39,396.79l-29.14-13.2c-17.06-7.73-37.2-1.18-46.45,15.11c-9.25,16.29-2.97,34.97,10.84,47.63
			l20.91,19.16L544.39,396.79z"/>
		<path class="st8" d="M582.83,409.69l-43.29-19.62c-21.38-9.69-46.62-1.48-58.2,18.93c-11.59,20.41-3.72,43.82,13.58,59.68
			l30.98,28.4C550.27,472.22,569.76,442.58,582.83,409.69z"/>
	</g>
	<path class="st9" d="M226.57,290.07h12.57v5.77h-12.57V290.07L226.57,290.07z M286.77,290.07h22.83v5.77h-22.83V290.07
		L286.77,290.07z M337.62,290.07h29v5.77h-29V290.07L337.62,290.07z M396.04,290.07h29v5.77h-29V290.07L396.04,290.07z
		 M226.57,186.97h20.88v5.77h-20.88V186.97L226.57,186.97z M263.08,186.97h45.91v5.77h-45.91V186.97L263.08,186.97z M337.24,186.97
		h57.95v5.77h-57.95V186.97L337.24,186.97z M226.57,277.18h34.98v5.77h-34.98V277.18L226.57,277.18z M305.94,277.18h15.63v5.77
		h-15.63V277.18L305.94,277.18z M353.68,277.18h42.37v5.77h-42.37V277.18L353.68,277.18z M226.57,264.3h15.75v5.77h-15.75V264.3
		L226.57,264.3z M270.28,264.3h30.65v5.77h-30.65V264.3L270.28,264.3z M334.38,264.3h41.02v5.77h-41.02V264.3L334.38,264.3z
		 M403.37,264.3h15.99v5.77h-15.99V264.3L403.37,264.3z M226.57,251.41h29.06v5.77h-29.06V251.41L226.57,251.41z M267.48,251.41
		h21.61v5.77h-21.61V251.41L267.48,251.41z M324.98,251.41h28.69v5.77h-28.69V251.41L324.98,251.41z M369.18,251.41h20.51v5.77
		h-20.51V251.41L369.18,251.41z M252.82,238.52h14.65v5.77h-14.65V238.52L252.82,238.52z M300.93,238.52h17.34v5.77h-17.34V238.52
		L300.93,238.52z M346.23,238.52h22.95v5.77h-22.95V238.52L346.23,238.52z M378.46,238.52h26.62v5.77h-26.62V238.52L378.46,238.52z
		 M252.82,225.63h33.94v5.77h-33.94V225.63L252.82,225.63z M296.78,225.63h24.79v5.77h-24.79V225.63L296.78,225.63z M352.46,225.63
		h24.79v5.77h-24.79V225.63L352.46,225.63z M394.09,225.63h20.76v5.77h-20.76V225.63L394.09,225.63z M252.82,212.74h14.65v5.77
		h-14.65V212.74L252.82,212.74z M281.76,212.74h33.33v5.77h-33.33V212.74L281.76,212.74z M331.94,212.74h67.15v5.77h-67.15V212.74
		L331.94,212.74z M226.57,199.86h11.96v5.77h-11.96V199.86L226.57,199.86z M252.82,199.86h32.6v5.77h-32.6V199.86L252.82,199.86z
		 M302.27,199.86h48.72v5.77h-48.72V199.86L302.27,199.86z M384.45,199.86h40.78v5.77h-40.78V199.86L384.45,199.86z M226.57,302.96
		h34.98v5.77h-34.98V302.96L226.57,302.96z M304.35,302.96h20.63v5.77h-20.63V302.96L304.35,302.96z M353.68,302.96h27.65v5.77
		h-27.65V302.96z"/>
</g>
</svg>
